<svg id="Layer_1" data-name="Layer 1" xmlns="http://www.w3.org/2000/svg" viewBox="0 0 16 16.41"><defs><style>.cls-1{opacity:0;}.cls-2{fill:none;stroke:#000;stroke-linecap:round;stroke-linejoin:round;stroke-width:2px;}</style></defs><rect class="cls-1" width="16" height="16"/><polyline class="cls-2" points="11 9.41 15 5.41 11 1.41"/><path d="M11.05,20.1h-1a6,6,0,0,1-2.33-.47,6.08,6.08,0,0,1-1.91-1.29,5.89,5.89,0,0,1-1.28-1.91,5.92,5.92,0,0,1,0-4.67A6,6,0,0,1,5.81,9.85,5.89,5.89,0,0,1,7.72,8.57a5.81,5.81,0,0,1,2.33-.47h9a1,1,0,0,1,.39.07,1.07,1.07,0,0,1,.54.54,1,1,0,0,1,.07.39,1,1,0,0,1-.07.38,1,1,0,0,1-.22.32.87.87,0,0,1-.32.22,1,1,0,0,1-.39.08h-9a4,4,0,0,0-4,4,4,4,0,0,0,4,4h1a1,1,0,0,1,.39.07,1.07,1.07,0,0,1,.54.54,1,1,0,0,1,.07.39,1,1,0,0,1-.07.38,1,1,0,0,1-.22.32.87.87,0,0,1-.32.22A1,1,0,0,1,11.05,20.1Z" transform="translate(-4.05 -3.68)"/></svg>