<svg id="Layer_1" data-name="Layer 1" xmlns="http://www.w3.org/2000/svg" viewBox="0 0 16 16"><defs><style>.cls-1{fill:none;stroke:#000;stroke-linecap:round;stroke-linejoin:round;stroke-width:2px;}</style></defs><polyline class="cls-1" points="5 9 1 5 5 1"/><path d="M13.61,20.29h1a6,6,0,0,0,2.33-.47,5.76,5.76,0,0,0,1.91-1.29A6,6,0,0,0,14.61,8.29h-9a1,1,0,0,0-.38.08,1,1,0,0,0-.33.21,1.46,1.46,0,0,0-.22.33,1.07,1.07,0,0,0,0,.76A1.27,1.27,0,0,0,4.9,10a1.27,1.27,0,0,0,.33.22,1,1,0,0,0,.38.07h9a4,4,0,0,1,4,4,4,4,0,0,1-4,4h-1a1,1,0,0,0-.38.08,1,1,0,0,0-.33.21,1.46,1.46,0,0,0-.22.33,1.07,1.07,0,0,0,0,.76,1,1,0,0,0,.55.55A1,1,0,0,0,13.61,20.29Z" transform="translate(-4.61 -4.29)"/></svg>